<svg id="Layer_1" data-name="Layer 1" xmlns="http://www.w3.org/2000/svg" viewBox="0 0 693.7 306.87"><defs><style>.cls-1{fill:#e0e7ea;opacity:0.42;}.cls-2{fill:#4f4f50;}.cls-3{fill:#4e4e4f;}.cls-4{fill:#b0d235;}.cls-13,.cls-4{opacity:0.6;}.cls-13,.cls-14,.cls-15,.cls-5{fill:#fff;}.cls-6{opacity:0.65;}.cls-11,.cls-7,.cls-8,.cls-9{fill:none;}.cls-8{stroke:#fff;stroke-miterlimit:10;stroke-width:1.99px;}.cls-11,.cls-14,.cls-15,.cls-8,.cls-9{stroke-linecap:round;}.cls-9{stroke:#4e4d50;}.cls-11,.cls-14,.cls-15,.cls-9{stroke-linejoin:round;}.cls-15,.cls-9{stroke-width:2.19px;}.cls-10{fill:#e2e9ec;}.cls-11,.cls-14,.cls-15{stroke:#4d4d4f;}.cls-11,.cls-14{stroke-width:1.55px;}.cls-12{fill:#becbd1;}</style></defs><title>dia_Xi_0617</title><polygon class="cls-1" points="410.85 145.63 257.27 145.63 81.57 185.31 81.64 306.75 587.27 306.75 587.19 185.31 410.85 145.63"/><path class="cls-2" d="M222.56,282.34V268.77a.87.87,0,0,1,.85-.88h9.52a.79.79,0,1,1,0,1.58h-8.65v5.23H232a.8.8,0,0,1,.79.79.78.78,0,0,1-.79.79h-7.66v5.36H233a.79.79,0,0,1,0,1.58h-9.63A.87.87,0,0,1,222.56,282.34Z"/><path class="cls-2" d="M236.94,272.64a.85.85,0,0,1,.83-.85.84.84,0,0,1,.85.85v1.23a4.29,4.29,0,0,1,3.88-2.21c2.74,0,4.34,1.84,4.34,4.53v6.28a.84.84,0,1,1-1.69,0v-5.87c0-2.1-1.14-3.42-3.13-3.42a3.33,3.33,0,0,0-3.39,3.55v5.74a.82.82,0,0,1-.83.85.84.84,0,0,1-.85-.85Z"/><path class="cls-2" d="M251,280.22v-6.83h-.92a.77.77,0,0,1-.74-.75.75.75,0,0,1,.74-.74H251v-2.67a.84.84,0,0,1,.83-.85.87.87,0,0,1,.85.85v2.67h2.93a.77.77,0,0,1,.77.74.76.76,0,0,1-.77.75H252.7V280a1.67,1.67,0,0,0,1.9,1.88,4.79,4.79,0,0,0,1-.15.73.73,0,0,1,.72.72.71.71,0,0,1-.48.66,4.27,4.27,0,0,1-1.66.31A2.88,2.88,0,0,1,251,280.22Z"/><path class="cls-2" d="M263.89,283.48a5.63,5.63,0,0,1-5.65-5.89v0a5.58,5.58,0,0,1,5.43-5.89c3.35,0,5.25,2.74,5.25,5.74a.79.79,0,0,1-.79.79h-8.19a4,4,0,0,0,4,3.83,4.63,4.63,0,0,0,3.26-1.31.73.73,0,0,1,1.23.53.73.73,0,0,1-.26.55A5.75,5.75,0,0,1,263.89,283.48Zm3.35-6.55c-.18-2.06-1.36-3.85-3.61-3.85-2,0-3.46,1.64-3.68,3.85Z"/><path class="cls-2" d="M271.9,272.64a.85.85,0,0,1,.83-.85.84.84,0,0,1,.85.85v2.12a4.69,4.69,0,0,1,3.9-3,.81.81,0,0,1,.83.85.84.84,0,0,1-.74.85c-2.19.26-4,1.9-4,5.17v3.85a.84.84,0,1,1-1.69,0Z"/><path class="cls-2" d="M280.77,272.64a.84.84,0,1,1,1.69,0v1.53a5.09,5.09,0,0,1,4.34-2.52,5.52,5.52,0,0,1,5.41,5.87v0a5.54,5.54,0,0,1-5.41,5.89,5.11,5.11,0,0,1-4.34-2.41V286a.82.82,0,0,1-.83.85.84.84,0,0,1-.85-.85Zm9.7,4.95v0a4.08,4.08,0,0,0-4-4.38,4.22,4.22,0,0,0-4.09,4.36v0a4.21,4.21,0,0,0,4.09,4.38C288.67,281.95,290.47,280.33,290.47,277.59Z"/><path class="cls-2" d="M295.3,272.64a.85.85,0,0,1,.83-.85.84.84,0,0,1,.85.85v2.12a4.69,4.69,0,0,1,3.9-3,.81.81,0,0,1,.83.85.84.84,0,0,1-.74.85c-2.19.26-4,1.9-4,5.17v3.85a.84.84,0,1,1-1.69,0Z"/><path class="cls-2" d="M304.17,268.35a1,1,0,0,1,2,0v.28a1,1,0,0,1-2,0Zm.15,4.29a.85.85,0,0,1,.83-.85.84.84,0,0,1,.85.85v9.83a.82.82,0,0,1-.83.85.84.84,0,0,1-.85-.85Z"/><path class="cls-2" d="M309.31,282a.76.76,0,0,1-.31-.61.73.73,0,0,1,.74-.72.67.67,0,0,1,.42.13,6.37,6.37,0,0,0,3.59,1.2c1.36,0,2.34-.7,2.34-1.79v0c0-1.14-1.34-1.58-2.83-2-1.77-.5-3.74-1.12-3.74-3.2v0c0-1.95,1.62-3.24,3.85-3.24a7.87,7.87,0,0,1,3.61,1,.82.82,0,0,1,.42.7.73.73,0,0,1-.75.72.85.85,0,0,1-.37-.09,6.13,6.13,0,0,0-3-.88c-1.34,0-2.19.7-2.19,1.64v0c0,1.07,1.4,1.49,2.91,1.95,1.75.53,3.64,1.2,3.64,3.24v0c0,2.15-1.77,3.39-4,3.39A7.83,7.83,0,0,1,309.31,282Z"/><path class="cls-2" d="M325.78,283.48a5.63,5.63,0,0,1-5.65-5.89v0a5.58,5.58,0,0,1,5.43-5.89c3.35,0,5.25,2.74,5.25,5.74a.79.79,0,0,1-.79.79h-8.19a4,4,0,0,0,4,3.83,4.63,4.63,0,0,0,3.26-1.31.73.73,0,0,1,1.23.53.73.73,0,0,1-.26.55A5.75,5.75,0,0,1,325.78,283.48Zm3.35-6.55c-.18-2.06-1.36-3.85-3.61-3.85-2,0-3.46,1.64-3.68,3.85Z"/><path class="cls-2" d="M340,275.6v0a7.72,7.72,0,0,1,7.75-7.93,7.93,7.93,0,0,1,5.47,2,1,1,0,0,1,.35.7.89.89,0,0,1-.88.85,1,1,0,0,1-.57-.2,6.28,6.28,0,0,0-4.4-1.75,6,6,0,0,0-5.93,6.29v0a6,6,0,0,0,5.93,6.33,6.27,6.27,0,0,0,4.55-1.86.8.8,0,0,1,.55-.24.86.86,0,0,1,.83.83.82.82,0,0,1-.28.61,7.85,7.85,0,0,1-5.69,2.26A7.64,7.64,0,0,1,340,275.6Z"/><path class="cls-2" d="M356.66,268a.84.84,0,1,1,1.69,0v14.5a.82.82,0,0,1-.83.85.84.84,0,0,1-.85-.85Z"/><path class="cls-2" d="M361.57,277.61v0a5.9,5.9,0,0,1,11.8,0v0a5.88,5.88,0,0,1-5.93,5.91A5.8,5.8,0,0,1,361.57,277.61Zm10.07,0v0a4.28,4.28,0,0,0-4.2-4.42,4.18,4.18,0,0,0-4.14,4.38v0a4.25,4.25,0,0,0,4.18,4.4A4.18,4.18,0,0,0,371.64,277.61Z"/><path class="cls-2" d="M386.11,282.48a.83.83,0,1,1-1.66,0v-1.23a4.31,4.31,0,0,1-3.88,2.21c-2.74,0-4.33-1.84-4.33-4.53v-6.28a.82.82,0,0,1,.83-.85.86.86,0,0,1,.85.85v5.87c0,2.1,1.14,3.42,3.13,3.42a3.34,3.34,0,0,0,3.39-3.55v-5.74a.82.82,0,0,1,.83-.85.84.84,0,0,1,.83.85Z"/><path class="cls-2" d="M400.67,282.48a.84.84,0,1,1-1.69,0v-1.53a5.09,5.09,0,0,1-4.34,2.52,5.52,5.52,0,0,1-5.41-5.87v0a5.56,5.56,0,0,1,5.41-5.89,5.1,5.1,0,0,1,4.34,2.41V268a.82.82,0,0,1,.83-.85.84.84,0,0,1,.85.85Zm-9.7-4.95v0a4.09,4.09,0,0,0,4,4.38,4.23,4.23,0,0,0,4.09-4.38v0a4.21,4.21,0,0,0-4.09-4.36C392.76,273.17,391,274.79,391,277.53Z"/><path class="cls-2" d="M410.6,275.6v0a7.82,7.82,0,1,1,15.63,0v0a7.82,7.82,0,1,1-15.63,0Zm13.84,0v0a6.09,6.09,0,0,0-6-6.33,6,6,0,0,0-6,6.29v0a6.09,6.09,0,0,0,6,6.33A6,6,0,0,0,424.44,275.6Z"/><path class="cls-2" d="M429.23,281.38a.78.78,0,0,1-.33-.66.84.84,0,0,1,.83-.85.77.77,0,0,1,.53.2,7,7,0,0,0,4.84,1.82c2.06,0,3.42-1.09,3.42-2.6v0c0-1.42-.77-2.23-4-2.91-3.53-.77-5.15-1.9-5.15-4.42v0c0-2.41,2.12-4.18,5-4.18a7.81,7.81,0,0,1,4.88,1.51.89.89,0,0,1,.37.7.83.83,0,0,1-.83.83.81.81,0,0,1-.5-.15,6.41,6.41,0,0,0-4-1.34c-2,0-3.26,1.1-3.26,2.47v0c0,1.45.79,2.26,4.16,3s5,2,5,4.34v0c0,2.63-2.19,4.34-5.23,4.34A9,9,0,0,1,429.23,281.38Z"/><path class="cls-3" d="M302.06,112.22l5.38-6.83L302.34,99a1.11,1.11,0,0,1-.3-.69.89.89,0,0,1,.9-.87,1,1,0,0,1,.8.46l4.85,6.3,4.78-6.23a1.12,1.12,0,0,1,.87-.53.84.84,0,0,1,.83.85,1,1,0,0,1-.25.64l-5.12,6.48,5.31,6.78a1,1,0,0,1,.3.67.9.9,0,0,1-.9.9,1,1,0,0,1-.8-.46l-5.08-6.6-5,6.53a1.13,1.13,0,0,1-.9.53.84.84,0,0,1-.8-.85A1,1,0,0,1,302.06,112.22Z"/><path class="cls-3" d="M318.56,98a1.05,1.05,0,0,1,2.09,0v.3a1.05,1.05,0,0,1-2.09,0Zm.16,4.5a.89.89,0,0,1,.87-.9.88.88,0,0,1,.9.9v10.32a.86.86,0,0,1-.87.9.88.88,0,0,1-.9-.9Z"/><path class="cls-3" d="M331.8,98.43a.92.92,0,0,1,.9-.92h4.69c5.06,0,8.55,3.47,8.55,8v0c0,4.53-3.49,8-8.55,8H332.7a.92.92,0,0,1-.9-.92Zm5.59,13.49c4.07,0,6.66-2.76,6.66-6.32v0c0-3.56-2.6-6.37-6.66-6.37h-3.77v12.73Z"/><path class="cls-3" d="M349.78,98.43a.92.92,0,0,1,.9-.92h6a6.34,6.34,0,0,1,4.57,1.61,4.45,4.45,0,0,1,1.24,3.17v0c0,2.64-1.79,4.18-4.3,4.67l4,5.15a1,1,0,0,1,.3.67,1,1,0,0,1-.92.9,1.06,1.06,0,0,1-.85-.48l-4.53-5.88h-4.62v5.45a.91.91,0,1,1-1.82,0Zm6.76,7.29c2.41,0,4.14-1.24,4.14-3.31v0c0-2-1.52-3.17-4.11-3.17h-5v6.53Z"/><polygon class="cls-4" points="388.13 125.36 366.94 113.12 366.94 120.98 296.72 120.98 296.72 113.12 275.53 125.36 296.72 137.59 296.72 129.74 366.94 129.74 366.94 137.59 388.13 125.36"/><rect class="cls-4" x="221.18" y="190.73" width="221.3" height="33.92"/><path class="cls-5" d="M639.81,237.28c29.11,0,52.71-27.74,52.71-62,0-33.67-22.85-61-51.31-61.89-9.81-40.91-41.77-70.9-79.7-70.9-27.65,0-52.12,15.95-67.17,40.44a22.86,22.86,0,0,0-14.15-5c-14.14,0-25.6,13.48-25.6,30.1a35.29,35.29,0,0,0,.44,5.43c-.65,0-1.29-.12-1.94-.12-29.11,0-52.71,27.74-52.71,62s23.6,62,52.71,62Z"/><g class="cls-6"><path class="cls-7" d="M560.25,54.51c43.07,6.19,59.09,26,65.44,67.53a38,38,0,0,1,5.84-.5c24.7,0,44.72,23.55,44.72,52.61s-20,52.61-44.72,52.61c-13.64,0-25.83-7.21-34-18.53"/><path class="cls-8" d="M517.85,224.57H459.18c-23.49,0-42.54-22.41-42.54-50"/></g><path class="cls-9" d="M639.81,237.28c29.11,0,52.71-27.74,52.71-62,0-33.67-22.85-61-51.31-61.89-9.81-40.91-41.77-70.9-79.7-70.9-27.65,0-52.12,15.95-67.17,40.44a22.86,22.86,0,0,0-14.15-5c-14.14,0-25.6,13.48-25.6,30.1a35.29,35.29,0,0,0,.44,5.43c-.65,0-1.29-.12-1.94-.12-29.11,0-52.71,27.74-52.71,62s23.6,62,52.71,62Z"/><path class="cls-3" d="M587.91,118.59a.48.48,0,1,1,1,0v7.13h4.37a.44.44,0,0,1,.43.44.43.43,0,0,1-.43.43h-4.85a.48.48,0,0,1-.47-.48Z"/><path class="cls-3" d="M595.21,118.42a.55.55,0,0,1,1.1,0v.16a.55.55,0,0,1-1.1,0Zm.08,2.36a.47.47,0,0,1,.46-.47.46.46,0,0,1,.47.47v5.41a.45.45,0,0,1-.46.47.46.46,0,0,1-.47-.47Z"/><path class="cls-3" d="M600.88,126.69h0a.58.58,0,0,1-.53-.4L598,121a1,1,0,0,1-.06-.25.48.48,0,0,1,.94-.1l2,4.87,2-4.89a.44.44,0,0,1,.43-.34.46.46,0,0,1,.46.46.63.63,0,0,1,0,.23l-2.35,5.3A.56.56,0,0,1,600.88,126.69Z"/><path class="cls-3" d="M607.8,126.74a3.09,3.09,0,0,1-3.11-3.24v0a3.07,3.07,0,0,1,3-3.24,2.93,2.93,0,0,1,2.89,3.15.43.43,0,0,1-.43.43h-4.5a2.17,2.17,0,0,0,2.19,2.11,2.54,2.54,0,0,0,1.79-.72.4.4,0,0,1,.67.29.4.4,0,0,1-.14.3A3.16,3.16,0,0,1,607.8,126.74Zm1.84-3.6a2.05,2.05,0,0,0-2-2.12,2.15,2.15,0,0,0-2,2.12Z"/><path class="cls-3" d="M618.69,126.29l-3.25-7.5a.45.45,0,0,1,0-.22.49.49,0,0,1,.48-.47.53.53,0,0,1,.49.36l2.91,7,2.93-7a.56.56,0,0,1,.47-.34.47.47,0,0,1,.47.46.51.51,0,0,1,0,.19l-3.26,7.54a.58.58,0,0,1-.55.4h0A.57.57,0,0,1,618.69,126.29Z"/><path class="cls-3" d="M624.93,118.6a.48.48,0,0,1,.47-.47h.11a.52.52,0,0,1,.45.25l3,4.53,3-4.53a.51.51,0,0,1,.45-.25h.11a.48.48,0,0,1,.47.47v7.57a.48.48,0,0,1-.47.48.49.49,0,0,1-.48-.48v-6.29l-2.7,4a.47.47,0,0,1-.4.24.48.48,0,0,1-.41-.24l-2.69-3.95v6.29a.46.46,0,1,1-.93,0Z"/><path class="cls-3" d="M634.89,125.93a.42.42,0,0,1-.17-.34.4.4,0,0,1,.41-.4.37.37,0,0,1,.23.07,3.5,3.5,0,0,0,2,.66c.75,0,1.29-.38,1.29-1v0c0-.63-.73-.87-1.55-1.1-1-.28-2.06-.61-2.06-1.76v0a1.88,1.88,0,0,1,2.12-1.78,4.35,4.35,0,0,1,2,.53.45.45,0,0,1,.23.38.4.4,0,0,1-.41.4.46.46,0,0,1-.21,0,3.38,3.38,0,0,0-1.63-.48c-.73,0-1.2.38-1.2.9v0c0,.59.77.82,1.6,1.07s2,.66,2,1.78v0a2,2,0,0,1-2.22,1.87A4.31,4.31,0,0,1,634.89,125.93Z"/><rect class="cls-10" x="453.39" y="159.5" width="39.77" height="38.05"/><rect class="cls-5" x="453.39" y="159.5" width="39.77" height="6.64"/><rect class="cls-11" x="453.39" y="159.5" width="39.77" height="38.05" rx="1.29" ry="1.29"/><polyline class="cls-11" points="471.51 176.71 466.2 186.98 460.88 176.71"/><polyline class="cls-11" points="474.67 186.98 474.67 176.71 480.17 182.64 485.66 176.71 485.66 186.98"/><line class="cls-11" x1="453.39" y1="166.14" x2="490.94" y2="166.14"/><circle class="cls-12" cx="457.58" cy="162.82" r="1.05"/><circle class="cls-10" cx="461.41" cy="162.82" r="1.05"/><circle class="cls-10" cx="465.25" cy="162.82" r="1.05"/><rect class="cls-10" x="511.76" y="159.5" width="39.77" height="38.05"/><rect class="cls-5" x="511.76" y="159.5" width="39.77" height="6.64"/><rect class="cls-11" x="511.76" y="159.5" width="39.77" height="38.05" rx="1.29" ry="1.29"/><polyline class="cls-11" points="529.87 176.71 524.56 186.98 519.25 176.71"/><polyline class="cls-11" points="533.04 186.98 533.04 176.71 538.53 182.64 544.03 176.71 544.03 186.98"/><line class="cls-11" x1="511.76" y1="166.14" x2="549.31" y2="166.14"/><circle class="cls-12" cx="515.95" cy="162.82" r="1.05"/><circle class="cls-10" cx="519.78" cy="162.82" r="1.05"/><circle class="cls-10" cx="523.62" cy="162.82" r="1.05"/><rect class="cls-10" x="568.29" y="159.5" width="39.77" height="38.05"/><rect class="cls-5" x="568.29" y="159.5" width="39.77" height="6.64"/><rect class="cls-11" x="568.29" y="159.5" width="39.77" height="38.05" rx="1.29" ry="1.29"/><polyline class="cls-11" points="586.4 176.71 581.09 186.98 575.78 176.71"/><polyline class="cls-11" points="589.57 186.98 589.57 176.71 595.07 182.64 600.56 176.71 600.56 186.98"/><line class="cls-11" x1="568.29" y1="166.14" x2="605.84" y2="166.14"/><circle class="cls-12" cx="572.48" cy="162.82" r="1.05"/><circle class="cls-10" cx="576.31" cy="162.82" r="1.05"/><circle class="cls-10" cx="580.15" cy="162.82" r="1.05"/><rect class="cls-13" x="471.01" y="136.08" width="39.77" height="38.05"/><rect class="cls-5" x="471.01" y="136.08" width="39.77" height="6.64"/><rect class="cls-14" x="471.01" y="136.08" width="39.77" height="38.05" rx="1.29" ry="1.29"/><polyline class="cls-14" points="489.13 153.29 483.81 163.56 478.5 153.29"/><polyline class="cls-14" points="492.29 163.56 492.29 153.29 497.79 159.22 503.28 153.29 503.28 163.56"/><line class="cls-14" x1="471.01" y1="142.72" x2="508.56" y2="142.72"/><circle class="cls-5" cx="475.2" cy="139.4" r="1.05"/><circle class="cls-5" cx="479.03" cy="139.4" r="1.05"/><circle class="cls-5" cx="482.87" cy="139.4" r="1.05"/><rect class="cls-13" x="529.38" y="136.08" width="39.77" height="38.05"/><rect class="cls-5" x="529.38" y="136.08" width="39.77" height="6.64"/><rect class="cls-14" x="529.38" y="136.08" width="39.77" height="38.05" rx="1.29" ry="1.29"/><polyline class="cls-14" points="547.49 153.29 542.18 163.56 536.87 153.29"/><polyline class="cls-14" points="550.66 163.56 550.66 153.29 556.15 159.22 561.65 153.29 561.65 163.56"/><line class="cls-14" x1="529.38" y1="142.72" x2="566.93" y2="142.72"/><circle class="cls-5" cx="533.57" cy="139.4" r="1.05"/><circle class="cls-5" cx="537.4" cy="139.4" r="1.05"/><circle class="cls-5" cx="541.24" cy="139.4" r="1.05"/><rect class="cls-13" x="585.91" y="136.08" width="39.77" height="38.05"/><rect class="cls-5" x="585.91" y="136.08" width="39.77" height="6.64"/><rect class="cls-14" x="585.91" y="136.08" width="39.77" height="38.05" rx="1.29" ry="1.29"/><polyline class="cls-14" points="604.02 153.29 598.71 163.56 593.4 153.29"/><polyline class="cls-14" points="607.19 163.56 607.19 153.29 612.68 159.22 618.18 153.29 618.18 163.56"/><line class="cls-14" x1="585.91" y1="142.72" x2="623.46" y2="142.72"/><circle class="cls-5" cx="590.1" cy="139.4" r="1.05"/><circle class="cls-5" cx="593.93" cy="139.4" r="1.05"/><circle class="cls-5" cx="597.77" cy="139.4" r="1.05"/><rect class="cls-4" x="471.01" y="136.08" width="39.77" height="38.05"/><rect class="cls-5" x="471.01" y="136.08" width="39.77" height="6.64"/><rect class="cls-11" x="471.01" y="136.08" width="39.77" height="38.05" rx="1.29" ry="1.29"/><polyline class="cls-11" points="489.13 153.29 483.81 163.56 478.5 153.29"/><polyline class="cls-11" points="492.29 163.56 492.29 153.29 497.79 159.22 503.28 153.29 503.28 163.56"/><line class="cls-11" x1="471.01" y1="142.72" x2="508.56" y2="142.72"/><circle class="cls-12" cx="475.2" cy="139.4" r="1.05"/><circle class="cls-10" cx="479.03" cy="139.4" r="1.05"/><circle class="cls-10" cx="482.87" cy="139.4" r="1.05"/><rect class="cls-4" x="529.38" y="136.08" width="39.77" height="38.05"/><rect class="cls-5" x="529.38" y="136.08" width="39.77" height="6.64"/><rect class="cls-11" x="529.38" y="136.08" width="39.77" height="38.05" rx="1.29" ry="1.29"/><polyline class="cls-11" points="547.49 153.29 542.18 163.56 536.87 153.29"/><polyline class="cls-11" points="550.66 163.56 550.66 153.29 556.15 159.22 561.65 153.29 561.65 163.56"/><line class="cls-11" x1="529.38" y1="142.72" x2="566.93" y2="142.72"/><circle class="cls-12" cx="533.57" cy="139.4" r="1.05"/><circle class="cls-10" cx="537.4" cy="139.4" r="1.05"/><circle class="cls-10" cx="541.24" cy="139.4" r="1.05"/><rect class="cls-4" x="585.91" y="136.08" width="39.77" height="38.05"/><rect class="cls-5" x="585.91" y="136.08" width="39.77" height="6.64"/><rect class="cls-11" x="585.91" y="136.08" width="39.77" height="38.05" rx="1.29" ry="1.29"/><polyline class="cls-11" points="604.02 153.29 598.71 163.56 593.4 153.29"/><polyline class="cls-11" points="607.19 163.56 607.19 153.29 612.68 159.22 618.18 153.29 618.18 163.56"/><line class="cls-11" x1="585.91" y1="142.72" x2="623.46" y2="142.72"/><circle class="cls-12" cx="590.1" cy="139.4" r="1.05"/><circle class="cls-10" cx="593.93" cy="139.4" r="1.05"/><circle class="cls-10" cx="597.77" cy="139.4" r="1.05"/><path class="cls-3" d="M587.68,207.93a.47.47,0,1,1,.95,0v7.56a.47.47,0,1,1-.95,0Z"/><path class="cls-3" d="M590.93,210.12a.47.47,0,0,1,.46-.47.46.46,0,0,1,.47.47v.67a2.35,2.35,0,0,1,2.12-1.21,2.26,2.26,0,0,1,2.37,2.48v3.44a.46.46,0,1,1-.92,0v-3.21a1.65,1.65,0,0,0-1.72-1.87,1.82,1.82,0,0,0-1.86,1.94v3.14a.45.45,0,0,1-.46.47.46.46,0,0,1-.47-.47Z"/><path class="cls-3" d="M597.85,214.11v0c0-1.31,1.08-2,2.65-2a6.61,6.61,0,0,1,1.91.26v-.22c0-1.12-.68-1.69-1.85-1.69a3.87,3.87,0,0,0-1.61.35.48.48,0,0,1-.17,0,.41.41,0,0,1-.41-.4.42.42,0,0,1,.25-.38,4.89,4.89,0,0,1,2-.42,2.72,2.72,0,0,1,2,.68,2.45,2.45,0,0,1,.64,1.81v3.39a.44.44,0,0,1-.44.46.43.43,0,0,1-.44-.43V215a2.72,2.72,0,0,1-2.24,1.07A2.09,2.09,0,0,1,597.85,214.11Zm4.57-.48V213a6.47,6.47,0,0,0-1.82-.26c-1.16,0-1.81.5-1.81,1.28v0c0,.78.72,1.24,1.56,1.24A1.87,1.87,0,0,0,602.42,213.63Z"/><path class="cls-3" d="M604.88,212.84v0a3.22,3.22,0,0,1,5.46-2.34.43.43,0,0,1,.14.32.44.44,0,0,1-.44.44.48.48,0,0,1-.3-.11,2.39,2.39,0,0,0-1.69-.74,2.29,2.29,0,0,0-2.22,2.4v0a2.32,2.32,0,0,0,2.28,2.41,2.48,2.48,0,0,0,1.73-.76.37.37,0,0,1,.26-.12.43.43,0,0,1,.42.42.42.42,0,0,1-.12.29,3.12,3.12,0,0,1-2.34,1A3.18,3.18,0,0,1,604.88,212.84Z"/><path class="cls-3" d="M612.44,214.26v-3.74h-.5a.42.42,0,0,1-.41-.41.41.41,0,0,1,.41-.41h.5v-1.46a.46.46,0,0,1,.46-.47.48.48,0,0,1,.47.47v1.46H615a.42.42,0,0,1,.42.41.41.41,0,0,1-.42.41h-1.61v3.62a.92.92,0,0,0,1,1,2.62,2.62,0,0,0,.56-.08.4.4,0,0,1,.4.4.39.39,0,0,1-.26.36,2.34,2.34,0,0,1-.91.17A1.58,1.58,0,0,1,612.44,214.26Z"/><path class="cls-3" d="M617,207.76a.55.55,0,0,1,1.09,0v.16a.55.55,0,0,1-1.09,0Zm.08,2.35a.47.47,0,0,1,.46-.47.46.46,0,0,1,.47.47v5.38a.45.45,0,0,1-.46.47.46.46,0,0,1-.47-.47Z"/><path class="cls-3" d="M622.62,216h0a.57.57,0,0,1-.53-.4l-2.33-5.25a1,1,0,0,1-.06-.25.47.47,0,0,1,.94-.1l2,4.84,2-4.87a.44.44,0,0,1,.43-.34.46.46,0,0,1,.46.46.65.65,0,0,1,0,.23l-2.34,5.28A.56.56,0,0,1,622.62,216Z"/><path class="cls-3" d="M629.52,216.05a3.08,3.08,0,0,1-3.09-3.23v0a3.06,3.06,0,0,1,3-3.23,2.92,2.92,0,0,1,2.88,3.14.43.43,0,0,1-.43.43h-4.49a2.17,2.17,0,0,0,2.18,2.1,2.53,2.53,0,0,0,1.79-.72.4.4,0,0,1,.67.29.4.4,0,0,1-.14.3A3.15,3.15,0,0,1,629.52,216.05Zm1.83-3.59a2,2,0,0,0-2-2.11,2.14,2.14,0,0,0-2,2.11Z"/><path class="cls-3" d="M640.36,215.61l-3.24-7.47a.44.44,0,0,1,0-.22.49.49,0,0,1,.48-.47.53.53,0,0,1,.49.36l2.9,7,2.91-7a.56.56,0,0,1,.47-.34.47.47,0,0,1,.47.46.49.49,0,0,1,0,.19l-3.25,7.51a.58.58,0,0,1-.55.4h0A.57.57,0,0,1,640.36,215.61Z"/><path class="cls-3" d="M646.59,207.94a.48.48,0,0,1,.47-.47h.11a.52.52,0,0,1,.44.25l3,4.51,3-4.51a.51.51,0,0,1,.44-.25h.11a.48.48,0,0,1,.47.47v7.54a.48.48,0,0,1-.47.48.49.49,0,0,1-.48-.48v-6.26L651,213.17a.46.46,0,0,1-.4.24.48.48,0,0,1-.41-.24l-2.67-3.93v6.26a.46.46,0,1,1-.92,0Z"/><path class="cls-3" d="M656.52,215.25a.42.42,0,0,1-.17-.34.4.4,0,0,1,.41-.4.37.37,0,0,1,.23.07,3.49,3.49,0,0,0,2,.66c.74,0,1.28-.38,1.28-1v0c0-.62-.73-.86-1.55-1.09-1-.28-2.05-.61-2.05-1.75v0a1.88,1.88,0,0,1,2.11-1.78,4.33,4.33,0,0,1,2,.53.45.45,0,0,1,.23.38.4.4,0,0,1-.41.4.47.47,0,0,1-.2,0,3.36,3.36,0,0,0-1.62-.48c-.73,0-1.2.38-1.2.9v0c0,.59.77.82,1.59,1.07s2,.66,2,1.78v0A2,2,0,0,1,658.9,216,4.29,4.29,0,0,1,656.52,215.25Z"/><path class="cls-3" d="M44.71,2.15a1.08,1.08,0,0,1,1.05-1.08h6c4.26,0,7.07,2.27,7.07,6v.05c0,4.08-3.4,6.18-7.42,6.18H46.85V19a1.07,1.07,0,1,1-2.13,0Zm6.8,9.21c3.13,0,5.18-1.67,5.18-4.16V7.15c0-2.7-2-4.1-5.07-4.1H46.85v8.31Z"/><path class="cls-3" d="M62.4,6.93a1,1,0,0,1,1-1.05,1,1,0,0,1,1.05,1.05V9.55c1-2.32,3-3.73,4.8-3.73a1,1,0,0,1,1,1.05,1,1,0,0,1-.92,1.05c-2.7.32-4.91,2.35-4.91,6.37v4.75a1,1,0,1,1-2.08,0Z"/><path class="cls-3" d="M73.33,1.64a1.24,1.24,0,0,1,2.46,0V2a1.24,1.24,0,0,1-2.46,0Zm.19,5.29a1,1,0,0,1,1-1.05A1,1,0,0,1,75.6,6.93V19.05a1,1,0,0,1-1,1.05,1,1,0,0,1-1.05-1.05Z"/><path class="cls-3" d="M80.43,6.93a1,1,0,0,1,1-1.05,1,1,0,0,1,1.05,1.05V8.36A5.1,5.1,0,0,1,87,5.72,4.74,4.74,0,0,1,91.5,8.5a5.56,5.56,0,0,1,4.91-2.78c3.21,0,5.18,2.16,5.18,5.61v7.72a1,1,0,1,1-2.08,0V11.82c0-2.7-1.35-4.21-3.62-4.21-2.11,0-3.83,1.57-3.83,4.32v7.13a1,1,0,1,1-2.08,0V11.76c0-2.62-1.38-4.16-3.59-4.16S82.51,9.44,82.51,12v7a1,1,0,0,1-1,1.05,1,1,0,0,1-1.05-1.05Z"/><path class="cls-3" d="M105.06,15.92v-.05c0-2.94,2.43-4.51,6-4.51a14.8,14.8,0,0,1,4.29.59v-.49c0-2.51-1.54-3.81-4.16-3.81a8.73,8.73,0,0,0-3.62.78,1,1,0,0,1-.38.08.92.92,0,0,1-.92-.89,1,1,0,0,1,.57-.86,11,11,0,0,1,4.56-.95,6.12,6.12,0,0,1,4.51,1.54,5.5,5.5,0,0,1,1.43,4.08v7.64a1,1,0,0,1-1,1,1,1,0,0,1-1-1V17.86a6.12,6.12,0,0,1-5,2.4C107.68,20.27,105.06,18.78,105.06,15.92Zm10.28-1.08V13.49a14.56,14.56,0,0,0-4.1-.59c-2.62,0-4.08,1.13-4.08,2.89v.05c0,1.75,1.62,2.78,3.51,2.78C113.24,18.62,115.34,17.05,115.34,14.84Z"/><path class="cls-3" d="M121.74,6.93a1,1,0,0,1,1-1.05,1,1,0,0,1,1.05,1.05V9.55c1-2.32,3-3.73,4.8-3.73a1,1,0,0,1,1,1.05,1,1,0,0,1-.92,1.05c-2.7.32-4.91,2.35-4.91,6.37v4.75a1,1,0,1,1-2.08,0Z"/><path class="cls-3" d="M132.41,24a1,1,0,0,1-.65-.89.9.9,0,0,1,.89-.89,1.58,1.58,0,0,1,.51.11,4.3,4.3,0,0,0,1.51.24c1.3,0,2.05-.78,2.81-2.48l.11-.22L131.76,7.47a1.45,1.45,0,0,1-.13-.57,1,1,0,0,1,1.05-1,1.1,1.1,0,0,1,1.05.81l4.86,11,4.32-11a1,1,0,0,1,1-.78,1,1,0,0,1,1,1,1.75,1.75,0,0,1-.11.51l-5.45,13c-1.21,2.89-2.56,3.94-4.67,3.94A6.57,6.57,0,0,1,132.41,24Z"/><path class="cls-3" d="M156.3,17.7a1,1,0,0,1-.41-.81,1,1,0,0,1,1-1.05,1,1,0,0,1,.65.24,8.59,8.59,0,0,0,6,2.24c2.54,0,4.21-1.35,4.21-3.21v-.05c0-1.75-.94-2.75-4.91-3.59-4.35-.94-6.34-2.35-6.34-5.45V6c0-3,2.62-5.16,6.21-5.16a9.64,9.64,0,0,1,6,1.86,1.1,1.1,0,0,1,.46.86,1,1,0,0,1-1,1,1,1,0,0,1-.62-.19,7.9,7.9,0,0,0-4.89-1.65c-2.46,0-4,1.35-4,3v.05c0,1.78,1,2.78,5.13,3.67s6.16,2.46,6.16,5.34v.05c0,3.24-2.7,5.34-6.45,5.34A11,11,0,0,1,156.3,17.7Z"/><path class="cls-3" d="M173.91,1.64a1.23,1.23,0,0,1,2.46,0V2a1.23,1.23,0,0,1-2.46,0Zm.19,5.29a1,1,0,0,1,1-1.05,1,1,0,0,1,1.05,1.05V19.05a1,1,0,0,1-1,1.05,1,1,0,0,1-1.05-1.05Z"/><path class="cls-3" d="M181.74,16.27V7.85H180.6a1,1,0,0,1-.92-.92A.93.93,0,0,1,180.6,6h1.13V2.72a1,1,0,0,1,1-1.05,1.07,1.07,0,0,1,1.05,1.05V6h3.62a1,1,0,0,1,.95.92.93.93,0,0,1-.95.92h-3.62V16a2.07,2.07,0,0,0,2.35,2.32,5.87,5.87,0,0,0,1.27-.19.9.9,0,0,1,.89.89.87.87,0,0,1-.59.81,5.24,5.24,0,0,1-2.05.38C183.44,20.21,181.74,19.11,181.74,16.27Z"/><path class="cls-3" d="M197.61,20.29a6.94,6.94,0,0,1-7-7.26V13c0-4,2.83-7.26,6.69-7.26,4.13,0,6.48,3.37,6.48,7.07a1,1,0,0,1-1,1h-10.1a4.87,4.87,0,0,0,4.91,4.72,5.7,5.7,0,0,0,4-1.62.9.9,0,0,1,1.51.65.9.9,0,0,1-.32.67A7.1,7.1,0,0,1,197.61,20.29Zm4.13-8.07c-.22-2.54-1.67-4.75-4.45-4.75-2.43,0-4.26,2-4.54,4.75Z"/><path class="cls-3" d="M491.84,18.35l6.32-8-6-7.56a1.31,1.31,0,0,1-.35-.81,1,1,0,0,1,1.05-1,1.16,1.16,0,0,1,.94.54l5.7,7.4,5.61-7.32a1.32,1.32,0,0,1,1-.62,1,1,0,0,1,1,1,1.16,1.16,0,0,1-.3.76l-6,7.61,6.24,8a1.16,1.16,0,0,1,.35.78,1.05,1.05,0,0,1-1.05,1.05,1.16,1.16,0,0,1-.95-.54l-6-7.75-5.88,7.67a1.32,1.32,0,0,1-1.05.62,1,1,0,0,1-.94-1A1.16,1.16,0,0,1,491.84,18.35Z"/><path class="cls-3" d="M511.23,1.64a1.23,1.23,0,0,1,2.46,0V2a1.23,1.23,0,0,1-2.46,0Zm.19,5.29a1,1,0,0,1,1-1.05,1,1,0,0,1,1.05,1.05V19.05a1,1,0,0,1-1,1.05,1,1,0,0,1-1.05-1.05Z"/><path class="cls-3" d="M525.94,10.58v-.05A9.52,9.52,0,0,1,535.5.75a9.77,9.77,0,0,1,6.75,2.46,1.17,1.17,0,0,1,.43.86,1.1,1.1,0,0,1-1.08,1.05,1.28,1.28,0,0,1-.7-.24,7.73,7.73,0,0,0-5.43-2.16c-4.18,0-7.31,3.4-7.31,7.75v.05c0,4.37,3.16,7.8,7.31,7.8A7.74,7.74,0,0,0,541.08,16a1,1,0,0,1,.67-.3,1.06,1.06,0,0,1,1,1,1,1,0,0,1-.35.76,9.68,9.68,0,0,1-7,2.78A9.43,9.43,0,0,1,525.94,10.58Z"/><path class="cls-3" d="M546.54,1.18a1,1,0,1,1,2.08,0V19.05a1,1,0,0,1-1,1.05,1,1,0,0,1-1.05-1.05Z"/><path class="cls-3" d="M552.59,13.06V13A7.27,7.27,0,0,1,567.14,13V13a7.25,7.25,0,0,1-7.32,7.29A7.15,7.15,0,0,1,552.59,13.06Zm12.42,0V13a5.28,5.28,0,0,0-5.18-5.45,5.15,5.15,0,0,0-5.1,5.4V13a5.23,5.23,0,0,0,5.16,5.42A5.15,5.15,0,0,0,565,13.06Z"/><path class="cls-3" d="M582.85,19.05a1,1,0,1,1-2.05,0V17.54A5.32,5.32,0,0,1,576,20.27c-3.37,0-5.34-2.27-5.34-5.59V6.93a1,1,0,0,1,1-1.05,1.05,1.05,0,0,1,1.05,1.05v7.23c0,2.59,1.4,4.21,3.86,4.21A4.12,4.12,0,0,0,580.8,14V6.93a1,1,0,0,1,1-1.05,1,1,0,0,1,1,1.05Z"/><path class="cls-3" d="M600.81,19.05a1,1,0,1,1-2.08,0V17.16a6.27,6.27,0,0,1-5.34,3.1c-3.35,0-6.67-2.65-6.67-7.23V13c0-4.56,3.32-7.26,6.67-7.26a6.29,6.29,0,0,1,5.34,3V1.18a1,1,0,0,1,1-1.05,1,1,0,0,1,1.05,1.05Zm-12-6.1V13c0,3.29,2.29,5.4,4.91,5.4a5.21,5.21,0,0,0,5-5.4V13a5.19,5.19,0,0,0-5-5.37C591.06,7.58,588.85,9.58,588.85,13Z"/><path class="cls-15" d="M198.56,238.07H10.25c-5,0-9.09-3.57-9.09-7.94l-.08-169c0-4.36,4.09-7.94,9.09-7.94H237c5,0,9.08,3.57,9.08,7.94l.08,169c0,4.36-4.09,7.94-9.08,7.94H211.36"/><rect class="cls-4" x="46.27" y="152.68" width="39.77" height="38.05"/><rect class="cls-5" x="46.27" y="152.68" width="39.77" height="6.64"/><rect class="cls-11" x="46.27" y="152.68" width="39.77" height="38.05" rx="1.29" ry="1.29"/><polyline class="cls-11" points="64.39 169.89 59.08 180.16 53.77 169.89"/><polyline class="cls-11" points="67.56 180.16 67.56 169.89 73.05 175.82 78.55 169.89 78.55 180.16"/><line class="cls-11" x1="46.27" y1="159.32" x2="83.83" y2="159.32"/><circle class="cls-12" cx="50.46" cy="156" r="1.05"/><circle class="cls-10" cx="54.3" cy="156" r="1.05"/><circle class="cls-10" cx="58.13" cy="156" r="1.05"/><rect class="cls-4" x="104.64" y="152.68" width="39.77" height="38.05"/><rect class="cls-5" x="104.64" y="152.68" width="39.77" height="6.64"/><rect class="cls-11" x="104.64" y="152.68" width="39.77" height="38.05" rx="1.29" ry="1.29"/><polyline class="cls-11" points="122.76 169.89 117.45 180.16 112.14 169.89"/><polyline class="cls-11" points="125.92 180.16 125.92 169.89 131.42 175.82 136.91 169.89 136.91 180.16"/><line class="cls-11" x1="104.64" y1="159.32" x2="142.2" y2="159.32"/><circle class="cls-12" cx="108.83" cy="156" r="1.05"/><circle class="cls-10" cx="112.67" cy="156" r="1.05"/><circle class="cls-10" cx="116.5" cy="156" r="1.05"/><rect class="cls-4" x="161.17" y="152.68" width="39.77" height="38.05"/><rect class="cls-5" x="161.17" y="152.68" width="39.77" height="6.64"/><rect class="cls-11" x="161.17" y="152.68" width="39.77" height="38.05" rx="1.29" ry="1.29"/><polyline class="cls-11" points="179.29 169.89 173.98 180.16 168.67 169.89"/><polyline class="cls-11" points="182.45 180.16 182.45 169.89 187.95 175.82 193.44 169.89 193.44 180.16"/><line class="cls-11" x1="161.17" y1="159.32" x2="198.73" y2="159.32"/><circle class="cls-12" cx="165.36" cy="156" r="1.05"/><circle class="cls-10" cx="169.2" cy="156" r="1.05"/><circle class="cls-10" cx="173.03" cy="156" r="1.05"/><rect class="cls-4" x="46.27" y="92.34" width="39.77" height="38.05"/><rect class="cls-5" x="46.27" y="92.34" width="39.77" height="6.64"/><rect class="cls-11" x="46.27" y="92.34" width="39.77" height="38.05" rx="1.29" ry="1.29"/><polyline class="cls-11" points="64.39 109.55 59.08 119.82 53.77 109.55"/><polyline class="cls-11" points="67.56 119.82 67.56 109.55 73.05 115.47 78.55 109.55 78.55 119.82"/><line class="cls-11" x1="46.27" y1="98.97" x2="83.83" y2="98.97"/><circle class="cls-12" cx="50.46" cy="95.65" r="1.05"/><circle class="cls-10" cx="54.3" cy="95.65" r="1.05"/><circle class="cls-10" cx="58.13" cy="95.65" r="1.05"/><rect class="cls-4" x="104.64" y="92.34" width="39.77" height="38.05"/><rect class="cls-5" x="104.64" y="92.34" width="39.77" height="6.64"/><rect class="cls-11" x="104.64" y="92.34" width="39.77" height="38.05" rx="1.29" ry="1.29"/><polyline class="cls-11" points="122.76 109.55 117.45 119.82 112.14 109.55"/><polyline class="cls-11" points="125.92 119.82 125.92 109.55 131.42 115.47 136.91 109.55 136.91 119.82"/><line class="cls-11" x1="104.64" y1="98.97" x2="142.2" y2="98.97"/><circle class="cls-12" cx="108.83" cy="95.65" r="1.05"/><circle class="cls-10" cx="112.67" cy="95.65" r="1.05"/><circle class="cls-10" cx="116.5" cy="95.65" r="1.05"/><rect class="cls-4" x="161.17" y="92.34" width="39.77" height="38.05"/><rect class="cls-5" x="161.17" y="92.34" width="39.77" height="6.64"/><rect class="cls-11" x="161.17" y="92.34" width="39.77" height="38.05" rx="1.29" ry="1.29"/><polyline class="cls-11" points="179.29 109.55 173.98 119.82 168.67 109.55"/><polyline class="cls-11" points="182.45 119.82 182.45 109.55 187.95 115.47 193.44 109.55 193.44 119.82"/><line class="cls-11" x1="161.17" y1="98.97" x2="198.73" y2="98.97"/><circle class="cls-12" cx="165.36" cy="95.65" r="1.05"/><circle class="cls-10" cx="169.2" cy="95.65" r="1.05"/><circle class="cls-10" cx="173.03" cy="95.65" r="1.05"/><path class="cls-3" d="M312.19,201.78a.61.61,0,0,1,.6-.61h3.42c2.42,0,4,1.29,4,3.4v0c0,2.32-1.93,3.51-4.22,3.51h-2.61v3.25a.61.61,0,1,1-1.21,0Zm3.86,5.23c1.78,0,2.94-1,2.94-2.36v0c0-1.53-1.15-2.33-2.88-2.33h-2.71V207Z"/><path class="cls-3" d="M322.23,204.49a.6.6,0,0,1,.58-.6.59.59,0,0,1,.6.6V206a3.28,3.28,0,0,1,2.73-2.12.57.57,0,0,1,.58.6.59.59,0,0,1-.52.6c-1.53.18-2.79,1.33-2.79,3.62v2.7a.59.59,0,1,1-1.18,0Z"/><path class="cls-3" d="M328.44,201.49a.7.7,0,0,1,1.39,0v.2a.7.7,0,0,1-1.39,0Zm.11,3a.6.6,0,0,1,.58-.6.59.59,0,0,1,.6.6v6.88a.58.58,0,0,1-.58.6.59.59,0,0,1-.6-.6Z"/><path class="cls-3" d="M332,211.05a.53.53,0,0,1-.21-.43.51.51,0,0,1,.52-.51.47.47,0,0,1,.29.09,4.46,4.46,0,0,0,2.52.84c1,0,1.64-.49,1.64-1.26v0c0-.8-.94-1.1-2-1.39-1.24-.35-2.62-.78-2.62-2.24v0c0-1.36,1.14-2.27,2.7-2.27a5.53,5.53,0,0,1,2.53.67.57.57,0,0,1,.29.49.51.51,0,0,1-.52.51.58.58,0,0,1-.26-.06,4.29,4.29,0,0,0-2.07-.61c-.94,0-1.53.49-1.53,1.15v0c0,.75,1,1,2,1.36,1.23.37,2.55.84,2.55,2.27v0c0,1.5-1.24,2.38-2.82,2.38A5.48,5.48,0,0,1,332,211.05Z"/><path class="cls-3" d="M340.1,204.49a.6.6,0,0,1,.58-.6.59.59,0,0,1,.6.6v.81a2.9,2.9,0,0,1,2.56-1.5,2.69,2.69,0,0,1,2.55,1.58,3.16,3.16,0,0,1,2.79-1.58c1.82,0,2.94,1.23,2.94,3.19v4.38a.59.59,0,1,1-1.18,0v-4.11c0-1.53-.77-2.39-2.05-2.39a2.21,2.21,0,0,0-2.18,2.45v4a.59.59,0,1,1-1.18,0v-4.14c0-1.49-.78-2.36-2-2.36a2.3,2.3,0,0,0-2.21,2.5v4a.58.58,0,0,1-.58.6.59.59,0,0,1-.6-.6Z"/></svg>